<svg width="33" height="32" viewBox="0 0 33 32" fill="none" xmlns="http://www.w3.org/2000/svg">
<path d="M28.5 31.9998H16.5C16.1463 31.9998 15.8072 31.8594 15.5571 31.6093C15.3071 31.3593 15.1666 31.0201 15.1666 30.6665V27.9998C15.1666 27.6462 15.3071 27.3071 15.5571 27.057C15.8072 26.807 16.1463 26.6665 16.5 26.6665H28.5C28.8536 26.6665 29.1927 26.807 29.4428 27.057C29.6928 27.3071 29.8333 27.6462 29.8333 27.9998V30.6665C29.8333 31.0201 29.6928 31.3593 29.4428 31.6093C29.1927 31.8594 28.8536 31.9998 28.5 31.9998Z" fill="#C4B5FD"/>
<path d="M28.5 0H4.49996C4.14634 0 3.8072 0.140475 3.55715 0.390523C3.3071 0.640572 3.16663 0.979711 3.16663 1.33333V4C3.16663 4.35362 3.3071 4.69276 3.55715 4.94281C3.8072 5.19286 4.14634 5.33333 4.49996 5.33333H28.5C28.8536 5.33333 29.1927 5.19286 29.4428 4.94281C29.6928 4.69276 29.8333 4.35362 29.8333 4V1.33333C29.8333 0.979711 29.6928 0.640572 29.4428 0.390523C29.1927 0.140475 28.8536 0 28.5 0Z" fill="#1DB5BE"/>
<path d="M28.5 8H4.49996C4.14634 8 3.8072 8.14047 3.55715 8.39052C3.3071 8.64057 3.16663 8.97971 3.16663 9.33333V22.6667C3.16663 23.0203 3.3071 23.3594 3.55715 23.6095C3.8072 23.8595 4.14634 24 4.49996 24H28.5C28.8536 24 29.1927 23.8595 29.4428 23.6095C29.6928 23.3594 29.8333 23.0203 29.8333 22.6667V9.33333C29.8333 8.97971 29.6928 8.64057 29.4428 8.39052C29.1927 8.14047 28.8536 8 28.5 8Z" fill="#7C3AED"/>
</svg>
