<svg width="33" height="32" viewBox="0 0 33 32" fill="none" xmlns="http://www.w3.org/2000/svg">
<g clip-path="url(#clip0_519_1377)">
<path d="M15.7081 0.175931L1.2814 6.91593C1.18384 6.96067 1.10119 7.0325 1.0433 7.12288C0.9854 7.21325 0.954694 7.31836 0.954834 7.42569C0.954975 7.53302 0.985955 7.63805 1.04409 7.72827C1.10222 7.8185 1.18506 7.89011 1.28274 7.9346L15.8227 14.6253C16.2521 14.8226 16.7481 14.8226 17.1774 14.6253L31.7174 7.9346C31.8151 7.89024 31.8981 7.81873 31.9563 7.72859C32.0146 7.63844 32.0457 7.53345 32.046 7.42612C32.0463 7.31879 32.0157 7.21364 31.9579 7.12319C31.9001 7.03274 31.8176 6.9608 31.7201 6.91593L17.2921 0.175931C17.0441 0.0600563 16.7738 0 16.5001 0C16.2264 0 15.956 0.0600563 15.7081 0.175931Z" fill="#7C3AED"/>
<path opacity="0.64" d="M31.72 15.5679L28.74 14.1759C28.5266 14.0761 28.294 14.0241 28.0584 14.0234C27.8229 14.0228 27.59 14.0734 27.376 14.1719L17.1773 18.8652C16.9649 18.9629 16.7338 19.0135 16.5 19.0135C16.2662 19.0135 16.0351 18.9629 15.8227 18.8652L5.62267 14.1719C5.40885 14.0736 5.17621 14.0231 4.9409 14.0237C4.70559 14.0244 4.47324 14.0763 4.26001 14.1759L1.28001 15.5679C1.1825 15.6127 1.09995 15.6847 1.04217 15.7751C0.98439 15.8656 0.953823 15.9707 0.954103 16.0781C0.954384 16.1854 0.985502 16.2904 1.04375 16.3805C1.10201 16.4707 1.18494 16.5422 1.28267 16.5865L15.8227 23.2759C16.035 23.3741 16.2661 23.4249 16.5 23.4249C16.7339 23.4249 16.965 23.3741 17.1773 23.2759L31.7173 16.5865C31.8151 16.5422 31.898 16.4707 31.9563 16.3805C32.0145 16.2904 32.0456 16.1854 32.0459 16.0781C32.0462 15.9707 32.0156 15.8656 31.9578 15.7751C31.9001 15.6847 31.8175 15.6127 31.72 15.5679Z" fill="#C4B5FD"/>
<path d="M31.72 24.1441L28.74 22.7521C28.5266 22.6524 28.294 22.6004 28.0585 22.5997C27.8229 22.599 27.59 22.6496 27.376 22.7481L17.1774 27.4401C16.9649 27.5378 16.7338 27.5883 16.5 27.5883C16.2662 27.5883 16.0351 27.5378 15.8227 27.4401L5.62269 22.7468C5.40887 22.6485 5.17623 22.5979 4.94091 22.5986C4.7056 22.5993 4.47326 22.6512 4.26002 22.7507L1.28002 24.1441C1.18289 24.1891 1.10071 24.261 1.0432 24.3513C0.985701 24.4416 0.955288 24.5465 0.955568 24.6536C0.955849 24.7607 0.986813 24.8654 1.04479 24.9554C1.10277 25.0454 1.18532 25.1169 1.28269 25.1614L15.8227 31.8521C16.252 32.0494 16.748 32.0494 17.1774 31.8521L31.7174 25.1614C31.8147 25.1169 31.8973 25.0454 31.9553 24.9554C32.0132 24.8654 32.0442 24.7607 32.0445 24.6536C32.0448 24.5465 32.0143 24.4416 31.9568 24.3513C31.8993 24.261 31.8172 24.1891 31.72 24.1441Z" fill="#1DB5BE"/>
</g>
<defs>
<clipPath id="clip0_519_1377">
<rect width="32" height="32" fill="white" transform="translate(0.5)"/>
</clipPath>
</defs>
</svg>
