<svg width="33" height="32" viewBox="0 0 33 32" fill="none" xmlns="http://www.w3.org/2000/svg">
<path d="M7.16671 1.3335H3.16671C2.81309 1.3335 2.47395 1.47397 2.2239 1.72402C1.97385 1.97407 1.83337 2.31321 1.83337 2.66683V29.3335C1.83337 29.6871 1.97385 30.0263 2.2239 30.2763C2.47395 30.5264 2.81309 30.6668 3.16671 30.6668H7.16671V1.3335Z" fill="#C4B5FD"/>
<path d="M9.83337 30.6668H23.1667V1.3335H9.83337V30.6668ZM16.5 25.3335C16.1464 25.3335 15.8073 25.193 15.5572 24.943C15.3072 24.6929 15.1667 24.3538 15.1667 24.0002C15.1667 23.6465 15.3072 23.3074 15.5572 23.0574C15.8073 22.8073 16.1464 22.6668 16.5 22.6668C16.8537 22.6668 17.1928 22.8073 17.4429 23.0574C17.6929 23.3074 17.8334 23.6465 17.8334 24.0002C17.8334 24.3538 17.6929 24.6929 17.4429 24.943C17.1928 25.193 16.8537 25.3335 16.5 25.3335ZM16.5 6.66683C16.8537 6.66683 17.1928 6.8073 17.4429 7.05735C17.6929 7.3074 17.8334 7.64654 17.8334 8.00016C17.8334 8.35378 17.6929 8.69292 17.4429 8.94297C17.1928 9.19302 16.8537 9.3335 16.5 9.3335C16.1464 9.3335 15.8073 9.19302 15.5572 8.94297C15.3072 8.69292 15.1667 8.35378 15.1667 8.00016C15.1667 7.64654 15.3072 7.3074 15.5572 7.05735C15.8073 6.8073 16.1464 6.66683 16.5 6.66683ZM16.5 14.6668C16.8537 14.6668 17.1928 14.8073 17.4429 15.0574C17.6929 15.3074 17.8334 15.6465 17.8334 16.0002C17.8334 16.3538 17.6929 16.6929 17.4429 16.943C17.1928 17.193 16.8537 17.3335 16.5 17.3335C16.1464 17.3335 15.8073 17.193 15.5572 16.943C15.3072 16.6929 15.1667 16.3538 15.1667 16.0002C15.1667 15.6465 15.3072 15.3074 15.5572 15.0574C15.8073 14.8073 16.1464 14.6668 16.5 14.6668Z" fill="#7C3AED"/>
<path d="M29.8334 1.3335H25.8334V30.6668H29.8334C30.187 30.6668 30.5261 30.5264 30.7762 30.2763C31.0262 30.0263 31.1667 29.6871 31.1667 29.3335V2.66683C31.1667 2.31321 31.0262 1.97407 30.7762 1.72402C30.5261 1.47397 30.187 1.3335 29.8334 1.3335Z" fill="#1DB5BE"/>
</svg>
